<svg width="56" height="56" viewBox="0 0 56 56" fill="none" xmlns="http://www.w3.org/2000/svg"><rect opacity=".4" x=".5" y=".5" width="55" height="55" rx="27.5" stroke="#fff"/><path d="M23 38C23.5523 38 24 37.5523 24 37C24 36.4477 23.5523 36 23 36C22.4477 36 22 36.4477 22 37C22 37.5523 22.4477 38 23 38Z" stroke="#fff" stroke-width="2" stroke-linecap="round" stroke-linejoin="round"/><path d="M34 38C34.5523 38 35 37.5523 35 37C35 36.4477 34.5523 36 34 36C33.4477 36 33 36.4477 33 37C33 37.5523 33.4477 38 34 38Z" stroke="#fff" stroke-width="2" stroke-linecap="round" stroke-linejoin="round"/><path d="M17.0498 18.05H19.0498L21.7098 30.47C21.8074 30.9249 22.0605 31.3315 22.4255 31.6199C22.7906 31.9083 23.2447 32.0604 23.7098 32.05H33.4898C33.945 32.0493 34.3863 31.8933 34.7408 31.6079C35.0954 31.3224 35.3419 30.9246 35.4398 30.48L37.0898 23.05H20.1198" stroke="#fff" stroke-width="2" stroke-linecap="round" stroke-linejoin="round"/></svg>