<?xml version="1.0" encoding="UTF-8"?><svg id="Layer_1" xmlns="http://www.w3.org/2000/svg" viewBox="0 0 56 56"><defs><style>.cls-1{fill:#fff;}.cls-2{isolation:isolate;opacity:.4;}</style></defs><g class="cls-2"><path class="cls-1" d="M28,56C12.56,56,0,43.44,0,28S12.56,0,28,0s28,12.56,28,28-12.56,28-28,28ZM28,1C13.11,1,1,13.11,1,28s12.11,27,27,27,27-12.11,27-27S42.89,1,28,1Z"/></g><circle class="cls-1" cx="23" cy="37" r="2"/><circle class="cls-1" cx="34" cy="37" r="2"/><path class="cls-1" d="M23.64,33.05c-.65,0-1.31-.23-1.84-.65-.55-.43-.93-1.04-1.07-1.73l-1.58-7.37s-.02-.06-.02-.1l-.89-4.16h-1.19c-.55,0-1-.45-1-1s.45-1,1-1h2c.47,0,.88,.33,.98,.79l.9,4.21h16.16c.3,0,.59,.14,.78,.37,.19,.24,.26,.55,.2,.84l-1.65,7.43c-.15,.66-.52,1.26-1.05,1.69-.53,.43-1.2,.66-1.88,.66h-9.78s-.04,0-.07,0Zm-2.29-9l1.33,6.21c.05,.23,.18,.43,.36,.58,.18,.14,.42,.22,.64,.21h9.8c.23,0,.45-.08,.62-.22,.18-.14,.3-.34,.35-.56l1.38-6.22h-14.49Z"/></svg>