<svg width="144" height="25" viewBox="0 0 144 25" fill="none" xmlns="http://www.w3.org/2000/svg"><g clip-path="url(#clip0_1_1334)" fill="#fff"><path d="M7.90243 20.1674L6.22481 21.843C6.02675 22.0369 5.76045 22.1455 5.48311 22.1455C5.20577 22.1455 4.93952 22.0369 4.74146 21.843L3.09919 20.1939C3.00122 20.0979 2.92339 19.9834 2.87027 19.857C2.81714 19.7306 2.78975 19.5947 2.78975 19.4576C2.78975 19.3205 2.81714 19.1847 2.87027 19.0583C2.92339 18.9318 3.00122 18.8174 3.09919 18.7213L6.75456 15.0618C6.95176 14.8655 7.06294 14.599 7.06362 14.321V1.04933C7.06362 0.771017 6.9529 0.504018 6.75585 0.307221C6.55881 0.110424 6.29158 6.69289e-10 6.01291 6.69289e-10H1.04191C0.904342 -4.93313e-06 0.768109 0.0272446 0.641123 0.0800885C0.514138 0.132932 0.398906 0.210306 0.302042 0.307867C0.205178 0.405428 0.128615 0.521191 0.0767781 0.648458C0.0249409 0.775725 -0.00112838 0.911942 3.74427e-05 1.04933V23.977C-0.00112838 24.1144 0.0249409 24.2506 0.0767781 24.3779C0.128615 24.5052 0.205178 24.6209 0.302042 24.7185C0.398906 24.816 0.514138 24.8936 0.641123 24.9465C0.768109 24.9993 0.904342 25.0264 1.04191 25.0263H22.7448C22.8824 25.0264 23.0185 24.9993 23.1455 24.9465C23.2725 24.8936 23.3877 24.816 23.4846 24.7185C23.5815 24.6209 23.658 24.5052 23.7099 24.3779C23.7617 24.2506 23.7878 24.1144 23.7867 23.977V19.0212C23.7878 18.8838 23.7617 18.7474 23.7099 18.6201C23.658 18.4929 23.5815 18.3771 23.4846 18.2795C23.3877 18.182 23.2725 18.1046 23.1455 18.0518C23.0185 17.9989 22.8824 17.9717 22.7448 17.9717H13.2707C11.261 17.9661 9.33093 18.7556 7.90243 20.1674V20.1674Z"/><path d="M102.325 1.04957V14.2241C102.324 14.3633 102.351 14.5013 102.404 14.63C102.457 14.7586 102.535 14.8755 102.634 14.9738L106.298 18.6686C106.397 18.7662 106.475 18.8822 106.528 19.0101C106.582 19.138 106.609 19.2752 106.609 19.4137C106.609 19.5523 106.582 19.6895 106.528 19.8174C106.475 19.9453 106.397 20.0613 106.298 20.1589L104.656 21.8168C104.559 21.9149 104.443 21.9927 104.316 22.0459C104.189 22.0991 104.052 22.1266 103.914 22.1266C103.776 22.1266 103.64 22.0991 103.512 22.0459C103.385 21.9927 103.269 21.9149 103.173 21.8168L101.486 20.1149C100.085 18.7025 98.1794 17.9032 96.1884 17.8927H92.0386C90.8677 17.8927 89.7448 17.428 88.9169 16.6012C88.0889 15.7743 87.6238 14.6529 87.6238 13.4835V1.0584C87.6238 0.780088 87.5131 0.513089 87.316 0.316292C87.119 0.119494 86.8518 0.00907072 86.5731 0.00907072H81.6021C81.4645 0.00906578 81.3284 0.0363154 81.2014 0.0891592C81.0744 0.142003 80.9591 0.219376 80.8622 0.316938C80.7654 0.414499 80.6888 0.530262 80.637 0.657529C80.5851 0.784796 80.5591 0.921013 80.5602 1.0584V13.4835C80.5521 14.9942 80.843 16.4915 81.4162 17.8895C81.9894 19.2875 82.8335 20.5584 83.9002 21.6295C84.9669 22.7006 86.235 23.5506 87.6317 24.1306C89.0283 24.7105 90.526 25.009 92.0386 25.0089H108.373C108.512 25.0089 108.649 24.9815 108.777 24.9282C108.905 24.8749 109.022 24.7969 109.119 24.6985C109.217 24.6001 109.294 24.4834 109.346 24.3551C109.399 24.2268 109.425 24.0893 109.424 23.9508V1.02309C109.424 0.74478 109.313 0.477997 109.116 0.281199C108.919 0.0844018 108.652 -0.0262371 108.373 -0.0262371H103.402C103.259 -0.0311591 103.117 -0.00665377 102.984 0.0456703C102.851 0.0979943 102.73 0.177071 102.629 0.27797C102.528 0.378869 102.449 0.499371 102.397 0.632124C102.344 0.764878 102.32 0.906967 102.325 1.04957V1.04957Z"/><path d="M35.6181 0H30.6559C30.0756 0 29.6052 0.469825 29.6052 1.04938V23.9506C29.6052 24.5302 30.0756 25 30.6559 25H35.6181C36.1984 25 36.6688 24.5302 36.6688 23.9506V1.04938C36.6688 0.469825 36.1984 0 35.6181 0Z"/><path d="M134.756 3.77408e-05H117.026C116.889 -0.00112522 116.753 0.0245988 116.627 0.0758204C116.5 0.127042 116.384 0.202624 116.287 0.298432C116.189 0.394239 116.111 0.50848 116.058 0.634287C116.004 0.760093 115.976 0.895065 115.975 1.03171V23.9594C115.976 24.0961 116.004 24.2312 116.058 24.357C116.111 24.4829 116.189 24.5969 116.287 24.6927C116.384 24.7885 116.5 24.8641 116.627 24.9153C116.753 24.9665 116.889 24.9922 117.026 24.9911H121.988C122.125 24.9922 122.261 24.9665 122.387 24.9153C122.514 24.8641 122.63 24.7885 122.727 24.6927C122.825 24.5969 122.903 24.4829 122.956 24.357C123.01 24.2312 123.038 24.0961 123.039 23.9594V21.8078C123.037 21.5326 122.926 21.2693 122.73 21.0758L119.657 18.0335C119.558 17.9389 119.48 17.8252 119.426 17.6994C119.372 17.5736 119.345 17.4383 119.345 17.3015C119.345 17.1648 119.372 17.0294 119.426 16.9037C119.48 16.7779 119.558 16.6644 119.657 16.5697L121.299 14.9471C121.497 14.7532 121.764 14.6446 122.041 14.6446C122.318 14.6446 122.585 14.7532 122.783 14.9471L123.666 15.8289C125.221 17.3608 127.318 18.2192 129.502 18.2187H134.72C137.156 18.2304 139.498 17.2757 141.229 15.5643C142.961 13.8529 143.942 11.5249 143.956 9.0918C143.935 6.6702 142.956 4.35507 141.232 2.65178C139.508 0.948501 137.18 -0.00470999 134.756 3.77408e-05ZM136.928 9.12689C136.923 9.69836 136.692 10.2448 136.285 10.6464C135.878 11.048 135.328 11.2723 134.756 11.2699H124.09C123.953 11.2711 123.817 11.2453 123.69 11.1941C123.563 11.1429 123.448 11.0671 123.35 10.9713C123.253 10.8755 123.175 10.7615 123.121 10.6357C123.068 10.5098 123.04 10.3747 123.039 10.238V8.01577C123.039 7.87838 123.066 7.74237 123.119 7.61555C123.172 7.48872 123.249 7.37363 123.347 7.27689C123.445 7.18015 123.561 7.10368 123.688 7.05191C123.816 7.00014 123.952 6.9741 124.09 6.97527H134.756C135.04 6.97411 135.321 7.0288 135.584 7.13631C135.847 7.24381 136.086 7.40196 136.288 7.60177C136.489 7.80157 136.65 8.03914 136.76 8.30082C136.869 8.5625 136.926 8.84317 136.928 9.12689Z"/><path d="M75.3685 23.404L68.6228 16.6667C67.8385 15.882 66.9066 15.26 65.8808 14.8362C64.8549 14.4125 63.7554 14.1953 62.6452 14.1975V14.1975C62.2495 14.1975 61.8699 14.0406 61.5901 13.7611C61.3103 13.4816 61.153 13.1025 61.153 12.7072V11.2699C61.153 10.8747 61.3103 10.4956 61.5901 10.2161C61.8699 9.9366 62.2495 9.77948 62.6452 9.77948V9.77948C63.7559 9.77998 64.8557 9.56143 65.8815 9.13619C66.9073 8.71094 67.8389 8.08755 68.6228 7.30169L74.3443 1.59624C74.4754 1.46552 74.5646 1.29887 74.6008 1.11744C74.6369 0.936005 74.6184 0.747958 74.5475 0.577054C74.4766 0.406151 74.3565 0.259936 74.2025 0.157236C74.0484 0.0545358 73.8673 -9.02017e-05 73.6821 7.28603e-05H66.3889C66.2508 -0.00158105 66.1137 0.0249385 65.9862 0.0780084C65.8587 0.131078 65.7433 0.209453 65.6472 0.308586L61.4621 4.47986C61.2665 4.67721 61.1556 4.94279 61.153 5.22046V8.28923C61.153 8.68448 60.9958 9.0636 60.716 9.34308C60.4362 9.62257 60.0566 9.77948 59.6609 9.77948H58.098C57.7023 9.77948 57.3227 9.62257 57.0429 9.34308C56.7631 9.0636 56.6058 8.68448 56.6058 8.28923V5.22046C56.6066 4.94385 56.4988 4.6781 56.3056 4.47986L52.1205 0.308586C52.024 0.209866 51.9087 0.131694 51.7812 0.0786543C51.6538 0.0256146 51.5169 -0.00106839 51.3788 7.28603e-05H44.0856C43.9004 -9.02017e-05 43.7193 0.0545358 43.5652 0.157236C43.4112 0.259936 43.2911 0.406151 43.2202 0.577054C43.1493 0.747958 43.1307 0.936005 43.1669 1.11744C43.2031 1.29887 43.2924 1.46552 43.4234 1.59624L49.1361 7.30169C49.9205 8.08677 50.8523 8.70971 51.8779 9.13489C52.9036 9.56008 54.0031 9.77901 55.1137 9.77948V9.77948C55.3099 9.77831 55.5045 9.81609 55.6861 9.89057C55.8677 9.96505 56.0326 10.0749 56.1714 10.2135C56.3102 10.3521 56.4201 10.5168 56.4947 10.6981C56.5692 10.8795 56.607 11.0739 56.6058 11.2699V12.7514C56.6058 13.1466 56.4486 13.5257 56.1688 13.8052C55.8889 14.0847 55.5094 14.2416 55.1137 14.2416C54.0037 14.2404 52.9044 14.458 51.8786 14.8817C50.8529 15.3054 49.921 15.9269 49.1361 16.7108L42.3904 23.4479C42.2593 23.5786 42.1701 23.7453 42.1339 23.9267C42.0977 24.1081 42.1162 24.2964 42.1871 24.4673C42.258 24.6382 42.3781 24.7842 42.5322 24.8869C42.6862 24.9896 42.8674 25.0442 43.0526 25.0441H50.3457C50.4839 25.0457 50.6209 25.0192 50.7484 24.9661C50.876 24.9131 50.9913 24.8347 51.0874 24.7356L56.3056 19.5326C56.4021 19.435 56.4783 19.3194 56.5298 19.1922C56.5813 19.0651 56.6071 18.9291 56.6058 18.792V15.7232C56.6082 15.3295 56.7664 14.9526 57.046 14.675C57.3256 14.3974 57.7038 14.2416 58.098 14.2416H59.6609C59.8564 14.2404 60.0502 14.2779 60.2312 14.3518C60.4122 14.4258 60.5768 14.5347 60.7155 14.6724C60.8541 14.8101 60.9642 14.9739 61.0393 15.1542C61.1144 15.3345 61.1531 15.528 61.153 15.7232V18.792C61.1537 19.0701 61.2649 19.3363 61.4621 19.5326L66.6715 24.7356C66.7685 24.8335 66.884 24.911 67.0113 24.964C67.1386 25.017 67.2752 25.0442 67.4131 25.0441H74.7063C74.9011 25.0544 75.0943 25.0039 75.2588 24.8992C75.4234 24.7945 75.5511 24.6409 75.624 24.4602C75.697 24.2795 75.7116 24.0806 75.6658 23.8912C75.6199 23.7018 75.516 23.5315 75.3685 23.404V23.404Z"/></g><defs><clipPath id="clip0_1_1334"><path fill="#fff" d="M0 0H144V25H0z"/></clipPath></defs></svg>