<svg width="84vw" height="84vw" viewBox="0 0 84 84" fill="none" xmlns="http://www.w3.org/2000/svg"><path d="M19.6634 10.4119H24.6334L34.0134 35.4019H28.4133L26.4184 29.6269H17.6684L15.6733 35.4019H10.2833L19.6634 10.4119ZM25.0534 25.3219L22.0084 16.3619L18.9983 25.3219H25.0534ZM36.5768 10.4119H41.4768V35.4019H36.5768V10.4119Z" fill="#CA5935"/><path d="M50.6888 59.7714L49.5802 57.9088L54.3253 54.9376H56.5426V70.2594H53.9705V57.798L50.6888 59.7714ZM64.2544 65.7139C64.3579 66.7191 64.6314 67.436 65.0748 67.8647C65.5331 68.2786 66.2574 68.4855 67.2478 68.4855C68.12 68.4855 68.8073 68.2786 69.3099 67.8647C69.8125 67.4508 70.0638 66.793 70.0638 65.8913C70.0638 65.0191 69.8273 64.3909 69.3543 64.0065C68.896 63.6222 68.216 63.43 67.3143 63.43H65.6513V61.1905H67.4252C68.6965 61.1905 69.4208 60.6288 69.5982 59.5053C69.7017 59.1949 69.7312 58.8253 69.6869 58.3967C69.5982 57.8054 69.3395 57.3767 68.9108 57.1106C68.4821 56.8297 67.9278 56.6893 67.2478 56.6893C66.3609 56.6893 65.6883 56.8815 65.23 57.2658C64.7866 57.6354 64.454 58.2414 64.2322 59.084L61.8375 58.7514C61.9558 58.1749 62.1332 57.6354 62.3697 57.1328C62.621 56.6154 62.961 56.1645 63.3896 55.7802C63.8183 55.3811 64.3431 55.0707 64.964 54.8489C65.5996 54.6272 66.3683 54.5163 67.27 54.5163C68.1274 54.5163 68.8739 54.6272 69.5095 54.8489C70.1451 55.0707 70.6699 55.3663 71.0838 55.7359C71.4977 56.1054 71.8007 56.5341 71.9929 57.0219C72.1999 57.5097 72.3033 58.0271 72.3033 58.574C72.3033 60.2001 71.5938 61.3827 70.1747 62.1218C71.0616 62.4913 71.6973 63.0013 72.0816 63.6517C72.4659 64.2874 72.6581 65.0043 72.6581 65.8026C72.6581 67.3103 72.2072 68.5003 71.3055 69.3725C70.4186 70.2298 69.0808 70.6585 67.2922 70.6585C66.2278 70.6585 65.3409 70.5107 64.6314 70.2151C63.9218 69.9194 63.3527 69.5351 62.924 69.062C62.5101 68.589 62.2071 68.0568 62.0149 67.4656C61.8375 66.8743 61.734 66.2904 61.7045 65.7139H64.2544Z" fill="#CA5935"/><rect x="1.695" y="1.695" width="80.781" height="80.781" rx="7.869" stroke="#CA5935" stroke-width="2"/></svg>