<svg width="100" height="54" viewBox="0 0 100 54" fill="none" xmlns="http://www.w3.org/2000/svg"><path d="M75.8226 45.6472H11.3161C9.97552 45.6472 8.64808 45.3822 7.40957 44.8672C6.17106 44.3522 5.04574 43.5974 4.09782 42.6459C3.1499 41.6944 2.39797 40.5647 1.88496 39.3215C1.37195 38.0783 1.10791 36.7458 1.10791 35.4001V35.4001C1.11218 32.6838 2.18904 30.0799 4.10252 28.1591C6.016 26.2383 8.61001 25.1574 11.3161 25.1531H85.3212C86.6624 25.1552 87.9908 24.8916 89.2302 24.3774C90.4697 23.8632 91.5959 23.1085 92.5442 22.1565C93.4926 21.2046 94.2444 20.0741 94.7567 18.8299C95.2689 17.5857 95.5315 16.2523 95.5294 14.906V14.906C95.5294 12.1883 94.4539 9.58194 92.5395 7.66024C90.6251 5.73854 88.0286 4.65894 85.3212 4.65894H12.6707" stroke="#CA5935" stroke-width="2" stroke-miterlimit="10"/><path d="M12.4609 8.05781V1.09692L3.60743 1.09692V8.05781H12.4609Z" stroke="#CA5935" stroke-width="2" stroke-miterlimit="10"/><path d="M89.3689 52.2042H83.2408C82.3767 52.2042 81.5211 52.0334 80.7229 51.7015C79.9246 51.3696 79.1992 50.8831 78.5882 50.2698C77.9773 49.6564 77.4926 48.9283 77.162 48.127C76.8313 47.3257 76.6611 46.4668 76.6611 45.5995C76.6611 44.7322 76.8313 43.8733 77.162 43.072C77.4926 42.2706 77.9773 41.5425 78.5882 40.9292C79.1992 40.3159 79.9246 39.8294 80.7229 39.4975C81.5211 39.1656 82.3767 38.9948 83.2408 38.9948H89.3689V52.2042Z" stroke="#CA5935" stroke-width="2" stroke-miterlimit="10"/><path d="M90.3555 42.4873H98.1161" stroke="#CA5935" stroke-width="2" stroke-miterlimit="10" stroke-linecap="round"/><path d="M90.3555 48.9546H98.1161" stroke="#CA5935" stroke-width="2" stroke-miterlimit="10" stroke-linecap="round"/></svg>