<svg width="132" height="47" viewBox="0 0 132 47" fill="none" xmlns="http://www.w3.org/2000/svg"><path d="M1.10742 9.56396L65.5394 45.7804L130.452 10.4176" stroke="#CA5935" stroke-width="2" stroke-miterlimit="10" stroke-linecap="round"/><path d="M83.0849 36.0214C81.3427 32.9326 78.8051 30.3611 75.7329 28.5713C72.6607 26.7814 69.1647 25.8379 65.6045 25.8375C62.084 25.838 58.6255 26.7595 55.5761 28.5096C52.5267 30.2598 49.9936 32.777 48.231 35.8087" stroke="#CA5935" stroke-width="2" stroke-miterlimit="10" stroke-linecap="round"/><path d="M50.5449 8.43176L49.7449 7.08776L53.1689 4.94376H54.7689V15.9998H52.9129V7.00776L50.5449 8.43176ZM58.7017 14.5758C59.5123 13.8611 60.259 13.2264 60.9417 12.6718C61.635 12.1064 62.227 11.5784 62.7177 11.0878C63.219 10.5864 63.6083 10.1011 63.8857 9.63176C64.1737 9.15176 64.3177 8.62909 64.3177 8.06376C64.3177 7.49842 64.1577 7.05576 63.8377 6.73575C63.5283 6.40509 63.1017 6.23976 62.5577 6.23976C61.8963 6.23976 61.4003 6.38376 61.0697 6.67176C60.739 6.94909 60.4937 7.42376 60.3337 8.09576L58.5897 7.85576C58.6857 7.42909 58.819 7.02376 58.9897 6.63976C59.171 6.24509 59.4163 5.90376 59.7257 5.61576C60.0457 5.31709 60.435 5.08242 60.8937 4.91176C61.363 4.73042 61.9283 4.63976 62.5897 4.63976C63.7737 4.63976 64.675 4.94376 65.2937 5.55175C65.9123 6.14909 66.2217 6.94909 66.2217 7.95176C66.2217 8.58109 66.1043 9.14642 65.8697 9.64776C65.6457 10.1384 65.3203 10.6238 64.8937 11.1038C64.4777 11.5838 63.971 12.0851 63.3737 12.6078C62.787 13.1198 62.1257 13.7118 61.3897 14.3838H66.3657L66.1417 15.9998H58.7017V14.8638V14.5758ZM71.9944 14.6878C72.4104 14.6878 72.7571 14.5918 73.0344 14.3998C73.3224 14.1971 73.5517 13.9144 73.7224 13.5518C73.9037 13.1891 74.0317 12.7464 74.1064 12.2238C74.1917 11.7011 74.2344 11.1144 74.2344 10.4638C74.2344 9.82376 74.1917 9.24242 74.1064 8.71976C74.0317 8.19709 73.9037 7.75442 73.7224 7.39176C73.5517 7.01842 73.3224 6.73576 73.0344 6.54376C72.7571 6.34109 72.4104 6.23976 71.9944 6.23976C71.5784 6.23976 71.2264 6.34109 70.9384 6.54376C70.6611 6.74642 70.4371 7.03442 70.2664 7.40776C70.0957 7.77042 69.9731 8.21309 69.8984 8.73576C69.8237 9.24776 69.7864 9.82376 69.7864 10.4638C69.7864 11.8291 69.9517 12.8744 70.2824 13.5998C70.6237 14.3251 71.1944 14.6878 71.9944 14.6878ZM71.9784 16.2878C71.3384 16.2878 70.7624 16.1758 70.2504 15.9518C69.7491 15.7278 69.3224 15.3811 68.9704 14.9118C68.6184 14.4318 68.3464 13.8238 68.1544 13.0878C67.9731 12.3518 67.8824 11.4771 67.8824 10.4638C67.8824 8.51176 68.2397 7.05576 68.9544 6.09576C69.6797 5.12509 70.7091 4.63976 72.0424 4.63976C73.3331 4.63976 74.3357 5.11442 75.0504 6.06376C75.7757 7.00242 76.1384 8.46909 76.1384 10.4638C76.1384 11.4771 76.0424 12.3518 75.8504 13.0878C75.6691 13.8131 75.3971 14.4158 75.0344 14.8958C74.6824 15.3651 74.2451 15.7171 73.7224 15.9518C73.2104 16.1758 72.6291 16.2878 71.9784 16.2878ZM79.4792 8.03176C79.7992 8.03176 80.0552 7.93042 80.2472 7.72776C80.4498 7.51442 80.5512 7.23176 80.5512 6.87976C80.5512 6.54909 80.4498 6.27709 80.2472 6.06376C80.0552 5.85042 79.7992 5.74376 79.4792 5.74376C79.1378 5.74376 78.8658 5.85042 78.6632 6.06376C78.4712 6.27709 78.3752 6.54909 78.3752 6.87976C78.3752 7.24242 78.4712 7.52509 78.6632 7.72776C78.8658 7.93042 79.1378 8.03176 79.4792 8.03176ZM77.1912 6.87976C77.1912 6.55976 77.2445 6.26642 77.3512 5.99976C77.4685 5.72242 77.6285 5.48776 77.8312 5.29576C78.0338 5.09309 78.2738 4.93309 78.5512 4.81575C78.8392 4.69842 79.1485 4.63976 79.4792 4.63976C79.7992 4.63976 80.0925 4.69842 80.3592 4.81575C80.6365 4.92242 80.8765 5.07709 81.0792 5.27976C81.2818 5.48242 81.4418 5.72242 81.5592 5.99976C81.6765 6.26642 81.7352 6.55976 81.7352 6.87976C81.7352 7.23176 81.6712 7.55176 81.5432 7.83976C81.4258 8.11709 81.2605 8.35176 81.0472 8.54376C80.8445 8.73576 80.6045 8.88509 80.3272 8.99176C80.0605 9.09842 79.7778 9.15176 79.4792 9.15176C79.1272 9.15176 78.8072 9.09309 78.5192 8.97576C78.2418 8.84776 78.0018 8.68242 77.7992 8.47976C77.6072 8.26642 77.4578 8.02642 77.3512 7.75976C77.2445 7.48242 77.1912 7.18909 77.1912 6.87976Z" fill="#757F85"/></svg>