<svg width="144" height="63" viewBox="0 0 144 63" fill="none" xmlns="http://www.w3.org/2000/svg"><rect x="1.695" y="51.194" width="75.02" height="10.348" rx="1.293" stroke="#CA5935" stroke-width="2.587" stroke-miterlimit="10"/><path d="M76.7146 56.3677H121.338" stroke="#CA5935" stroke-width="2.587" stroke-miterlimit="10"/><path d="M133.401 61.8165H127.273C126.408 61.8165 125.553 61.6457 124.755 61.3138C123.956 60.9819 123.231 60.4954 122.62 59.8821C122.009 59.2688 121.524 58.5406 121.194 57.7393C120.863 56.938 120.693 56.0791 120.693 55.2118C120.693 54.3445 120.863 53.4856 121.194 52.6843C121.524 51.8829 122.009 51.1549 122.62 50.5415C123.231 49.9282 123.956 49.4417 124.755 49.1098C125.553 48.7779 126.408 48.6071 127.273 48.6071H133.401V61.8165Z" stroke="#CA5935" stroke-width="2" stroke-miterlimit="10"/><path d="M134.387 52.0996H142.148" stroke="#CA5935" stroke-width="2" stroke-miterlimit="10" stroke-linecap="round"/><path d="M134.387 58.5668H142.148" stroke="#CA5935" stroke-width="2" stroke-miterlimit="10" stroke-linecap="round"/><path d="M8.11645 16.223C8.1422 15.5277 8.71329 14.9774 9.40901 14.9774H14.6768C15.3726 14.9774 15.9436 15.5277 15.9694 16.223L17.167 48.5591C17.1942 49.2917 16.6076 49.9004 15.8745 49.9004H8.21138C7.47826 49.9004 6.89168 49.2917 6.91882 48.5591L8.11645 16.223Z" stroke="#CA5935" stroke-width="2" stroke-miterlimit="10"/><path d="M12.0429 14.9774L12.0429 0.749512" stroke="#CA5935" stroke-width="2" stroke-miterlimit="10"/><path d="M8.16259 44.7266H15.9233" stroke="#CA5935" stroke-width="2" stroke-miterlimit="10"/><path d="M8.16259 40.8463H15.9233" stroke="#CA5935" stroke-width="2" stroke-miterlimit="10"/><path d="M8.16259 36.966H15.9233" stroke="#CA5935" stroke-width="2" stroke-miterlimit="10"/><path d="M8.16259 33.0856H15.9233" stroke="#CA5935" stroke-width="2" stroke-miterlimit="10"/><path d="M26.2244 16.223C26.2501 15.5277 26.8212 14.9774 27.5169 14.9774H32.7847C33.4805 14.9774 34.0515 15.5277 34.0773 16.223L35.2749 48.5591C35.3021 49.2917 34.7155 49.9004 33.9824 49.9004H26.3193C25.5862 49.9004 24.9996 49.2917 25.0267 48.5591L26.2244 16.223Z" stroke="#CA5935" stroke-width="2" stroke-miterlimit="10"/><path d="M30.1508 14.9774L30.1508 0.749512" stroke="#CA5935" stroke-width="2" stroke-miterlimit="10"/><path d="M26.2705 44.7266H34.0312" stroke="#CA5935" stroke-width="2" stroke-miterlimit="10"/><path d="M26.2705 40.8463H34.0312" stroke="#CA5935" stroke-width="2" stroke-miterlimit="10"/><path d="M26.2705 36.966H34.0312" stroke="#CA5935" stroke-width="2" stroke-miterlimit="10"/><path d="M26.2705 33.0856H34.0312" stroke="#CA5935" stroke-width="2" stroke-miterlimit="10"/><path d="M44.3324 16.223C44.3581 15.5277 44.9292 14.9774 45.625 14.9774H50.8928C51.5885 14.9774 52.1596 15.5277 52.1853 16.223L53.383 48.5591C53.4101 49.2917 52.8235 49.9004 52.0904 49.9004H44.4273C43.6942 49.9004 43.1076 49.2917 43.1348 48.5591L44.3324 16.223Z" stroke="#CA5935" stroke-width="2" stroke-miterlimit="10"/><path d="M48.2589 14.9774L48.2589 0.749499" stroke="#CA5935" stroke-width="2" stroke-miterlimit="10"/><path d="M44.3785 44.7266H52.1392" stroke="#CA5935" stroke-width="2" stroke-miterlimit="10"/><path d="M44.3785 40.8463H52.1392" stroke="#CA5935" stroke-width="2" stroke-miterlimit="10"/><path d="M44.3785 36.966H52.1392" stroke="#CA5935" stroke-width="2" stroke-miterlimit="10"/><path d="M44.3785 33.0856H52.1392" stroke="#CA5935" stroke-width="2" stroke-miterlimit="10"/><path d="M62.4406 16.223C62.4664 15.5277 63.0375 14.9774 63.7332 14.9774H69.001C69.6967 14.9774 70.2678 15.5277 70.2936 16.223L71.4912 48.5591C71.5183 49.2917 70.9318 49.9004 70.1986 49.9004H62.5356C61.8024 49.9004 61.2159 49.2917 61.243 48.5591L62.4406 16.223Z" stroke="#CA5935" stroke-width="2" stroke-miterlimit="10"/><path d="M66.3671 14.9774L66.3671 0.749499" stroke="#CA5935" stroke-width="2" stroke-miterlimit="10"/><path d="M62.4868 44.7266H70.2474" stroke="#CA5935" stroke-width="2" stroke-miterlimit="10"/><path d="M62.4868 40.8463H70.2474" stroke="#CA5935" stroke-width="2" stroke-miterlimit="10"/><path d="M62.4868 36.966H70.2474" stroke="#CA5935" stroke-width="2" stroke-miterlimit="10"/><path d="M62.4868 33.0856H70.2474" stroke="#CA5935" stroke-width="2" stroke-miterlimit="10"/></svg>