<svg width="93" height="87" viewBox="0 0 93 87" fill="none" xmlns="http://www.w3.org/2000/svg"><path d="M56.4809 4.27023C48.194 1.43568 39.2215 1.30292 30.8543 3.89104C22.4871 6.47916 15.1566 11.6548 9.91737 18.6732C4.67815 25.6917 1.80031 34.1912 1.6979 42.9489C1.59549 51.7066 4.27378 60.2711 9.34744 67.4101C14.4211 74.5491 21.6286 79.8947 29.933 82.6778C38.2373 85.4609 47.2105 85.538 55.5614 82.898C63.9124 80.258 71.2107 75.037 76.4062 67.9862C81.6018 60.9354 84.4269 52.4182 84.4749 43.66" stroke="#CA5935" stroke-width="2.587" stroke-miterlimit="10" stroke-linecap="round"/><path d="M91.2173 30.1914L91.2173 36.3195C91.2173 37.1836 91.0465 38.0392 90.7145 38.8375C90.3826 39.6357 89.8961 40.3611 89.2828 40.9721C88.6695 41.583 87.9414 42.0677 87.1401 42.3983C86.3387 42.729 85.4799 42.8992 84.6126 42.8992C83.7452 42.8992 82.8863 42.729 82.085 42.3983C81.2837 42.0677 80.5556 41.583 79.9423 40.9721C79.329 40.3611 78.8425 39.6357 78.5106 38.8375C78.1787 38.0392 78.0078 37.1836 78.0078 36.3195L78.0078 30.1914L91.2173 30.1914Z" stroke="#CA5935" stroke-width="2.587" stroke-miterlimit="10"/><path d="M81.5005 29.2048L81.5005 21.4442" stroke="#CA5935" stroke-width="2.587" stroke-miterlimit="10" stroke-linecap="round"/><path d="M87.9675 29.2048L87.9675 21.4442" stroke="#CA5935" stroke-width="2.587" stroke-miterlimit="10" stroke-linecap="round"/><path d="M57.313 41.1926C59.0376 42.1883 59.0376 44.6776 57.313 45.6733L37.9113 56.8748C36.1868 57.8705 34.031 56.6259 34.031 54.6345L34.031 32.2314C34.031 30.24 36.1868 28.9954 37.9113 29.9911L57.313 41.1926Z" stroke="#CA5935" stroke-width="2.587" stroke-miterlimit="10" stroke-linecap="round"/></svg>