<svg width="147" height="114" viewBox="0 0 147 114" fill="none" xmlns="http://www.w3.org/2000/svg"><g clip-path="url(#clip0_2_11)"><path d="M72.3532 81.7451C72.5952 81.7435 72.8249 81.6491 72.9941 81.482C73.1633 81.3148 73.2587 81.0879 73.2604 80.8488L73.2318 78.3532C73.2318 78.2338 73.2077 78.115 73.1608 78.0039C73.1139 77.8927 73.0453 77.7915 72.9588 77.706C72.8723 77.6206 72.7698 77.5527 72.6574 77.5064C72.5449 77.4601 72.4246 77.4363 72.3038 77.4363L70.0541 77.4111C69.8144 77.4051 69.5844 77.3069 69.4129 77.1375C69.2415 76.9682 69.1422 76.7409 69.136 76.5041L69.1228 75.3537C69.1235 75.117 69.2177 74.8919 69.3852 74.7263C69.5528 74.5608 69.7806 74.4677 70.0203 74.4671L72.2699 74.4923C72.3897 74.4956 72.5084 74.4751 72.6189 74.4319C72.7294 74.3888 72.8295 74.324 72.9133 74.2412C72.997 74.1585 73.0627 74.0596 73.1063 73.9504C73.15 73.8412 73.1707 73.7239 73.1674 73.6056L73.1095 71.1389C73.1033 70.9021 73.004 70.6748 72.8326 70.5055C72.6612 70.3361 72.4311 70.2379 72.1914 70.2319L69.9418 70.2067C69.822 70.2073 69.7028 70.1841 69.5913 70.1385C69.4798 70.0928 69.3781 70.0257 69.2925 69.9411C69.2068 69.8565 69.1389 69.7561 69.0927 69.6459C69.0465 69.5357 69.0231 69.4179 69.0237 69.2996L69.0066 68.6659C69.0073 68.4291 69.1014 68.204 69.269 68.0384C69.4365 67.8729 69.6644 67.7799 69.904 67.7792L72.1537 67.8044C72.2735 67.8077 72.3921 67.7872 72.5026 67.744C72.6132 67.7009 72.7133 67.6361 72.797 67.5533C72.8807 67.4706 72.9464 67.3717 72.99 67.2625C73.0337 67.1533 73.0545 67.036 73.0511 66.9177L73.0322 64.4125C73.0261 64.1756 72.9268 63.9483 72.7553 63.779C72.5839 63.6096 72.3539 63.5115 72.1142 63.5054L69.8645 63.4802C69.7448 63.4808 69.6256 63.4576 69.5141 63.412C69.4025 63.3664 69.3009 63.2993 69.2152 63.2146C69.1296 63.13 69.0616 63.0296 69.0155 62.9194C68.9693 62.8092 68.9458 62.6915 68.9465 62.5732L68.9271 61.7444C68.9288 61.5054 69.0243 61.2784 69.1934 61.1113C69.3626 60.9441 69.5924 60.8498 69.8343 60.8481L72.4287 60.8285C72.5485 60.8318 72.6672 60.8113 72.7777 60.7681C72.8882 60.725 72.9883 60.6601 73.0721 60.5774C73.1558 60.4947 73.2214 60.3958 73.2651 60.2866C73.3088 60.1774 73.3295 60.0601 73.3262 59.9418L73.2615 54.3072C73.257 54.0697 73.1588 53.8412 72.9878 53.6705L67.2899 48.041C67.1884 47.943 67.0662 47.8688 66.9325 47.8238C66.7988 47.7789 66.6572 47.7645 66.5184 47.7818C66.3797 47.799 66.2475 47.8475 66.1319 47.9234C66.0163 47.9993 65.9204 48.1007 65.8515 48.2198L58.8929 60.8132C58.8259 60.9296 58.7331 61.0291 58.6212 61.1046C58.5094 61.1801 58.3814 61.2296 58.2465 61.2496C58.1116 61.2695 57.9732 61.2594 57.8414 61.22C57.7096 61.1806 57.5877 61.1128 57.4846 61.0216L55.0619 58.8208C54.8868 58.6624 54.6585 58.5748 54.4238 58.5758C54.1891 58.5768 53.9657 58.6663 53.7992 58.8261L51.8482 60.7537C51.6808 60.9242 51.5887 61.1539 51.5915 61.3941C51.5943 61.6344 51.6916 61.8662 51.863 62.0405L64.1868 74.2165C64.2741 74.2991 64.3434 74.3984 64.3905 74.508C64.4377 74.6175 64.4615 74.7351 64.4605 74.8531L64.4986 78.1676C64.4979 78.4044 64.4038 78.6295 64.2362 78.795C64.0686 78.9606 63.8408 79.0536 63.6011 79.0543L47.8141 78.8773C47.5738 78.8729 47.3425 78.7759 47.1698 78.6069L42.0506 73.5492C41.8786 73.3792 41.6468 73.2822 41.4063 73.2795C41.1657 73.2768 40.9361 73.3687 40.7679 73.5348L38.6413 75.6359C38.4723 75.8029 38.242 75.8961 38.0001 75.8952C37.7583 75.8943 37.5244 75.7995 37.3489 75.6311L26.3722 64.7861C26.2002 64.6162 25.9684 64.5192 25.7278 64.5165C25.4873 64.5138 25.2577 64.6056 25.0895 64.7717L16.2028 73.5518C16.0346 73.718 15.805 73.8098 15.5644 73.8071C15.3239 73.8044 15.0921 73.7074 14.9201 73.5375L14.0419 72.6699C13.9419 72.5769 13.8233 72.5058 13.6942 72.4613C13.6509 72.333 13.5787 72.2155 13.4831 72.1178L12.605 71.2502C12.433 71.0802 12.3348 70.8512 12.332 70.6135C12.3293 70.3759 12.4223 70.149 12.5904 69.9829L21.4772 61.2028C21.6453 61.0366 21.7383 60.8098 21.7355 60.5721C21.7328 60.3344 21.6346 60.1054 21.4626 59.9355L10.4859 49.0905C10.3323 48.9144 10.2506 48.6889 10.2571 48.4594C10.2636 48.2298 10.3579 48.0132 10.521 47.853L12.6086 45.7905C12.775 45.6208 12.8657 45.3918 12.8611 45.1529C12.8565 44.9139 12.757 44.6842 12.584 44.5133L7.50479 39.495C7.41886 39.4114 7.35038 39.312 7.30337 39.2026C7.25637 39.0933 7.23179 38.9762 7.23111 38.8584L7.05199 23.2608C7.04864 23.1425 7.06942 23.0252 7.11307 22.916C7.15673 22.8068 7.22237 22.7079 7.3061 22.6252C7.38983 22.5425 7.48994 22.4776 7.60046 22.4345C7.71099 22.3914 7.82966 22.3708 7.94944 22.3742L11.3042 22.4117C11.4239 22.4091 11.5433 22.4318 11.6545 22.4785C11.7657 22.5251 11.8659 22.5946 11.9485 22.6822L24.2724 34.8581C24.4479 35.0265 24.6818 35.1213 24.9237 35.1222C25.1655 35.1231 25.3958 35.0299 25.5649 34.8629L27.5158 32.9353C27.6792 32.7742 27.772 32.5557 27.7749 32.3251C27.7777 32.0946 27.6905 31.8698 27.5312 31.6976L25.3037 29.304C25.2089 29.2032 25.1381 29.0829 25.0967 28.9522C25.0552 28.8215 25.0443 28.6839 25.0646 28.5498C25.0849 28.4157 25.136 28.2886 25.214 28.1782C25.292 28.0678 25.3948 27.9769 25.5146 27.9125L38.251 21.0276C38.3738 20.9615 38.4787 20.8676 38.5572 20.7535C38.6357 20.6393 38.6858 20.508 38.7033 20.37C38.7209 20.232 38.7055 20.0911 38.6584 19.9586C38.6113 19.826 38.5338 19.7055 38.432 19.6065L32.784 14.0263C32.6112 13.8573 32.38 13.7602 32.1396 13.7559L26.4365 13.6919C26.1969 13.6926 25.9691 13.7856 25.8015 13.9512C25.6339 14.1168 25.5398 14.3418 25.5391 14.5786L25.568 17.0937C25.5708 17.2132 25.5494 17.3315 25.505 17.4416C25.4607 17.5517 25.3943 17.6514 25.3098 17.7349C25.2253 17.8185 25.1243 17.884 25.0128 17.9278C24.9014 17.9717 24.7817 17.9928 24.6608 17.99L23.8319 17.9807C23.7122 17.9814 23.593 17.9582 23.4815 17.9126C23.3699 17.8669 23.2683 17.7998 23.1827 17.7152C23.097 17.6306 23.0291 17.5302 22.9829 17.42C22.9367 17.3098 22.9133 17.192 22.9139 17.0737L22.8884 14.8511C22.8822 14.6142 22.7829 14.387 22.6115 14.2176C22.44 14.0482 22.21 13.9501 21.9703 13.944L19.404 13.8373C19.1644 13.838 18.9366 13.931 18.769 14.0965C18.6014 14.2621 18.5073 14.4872 18.5066 14.724L18.5321 16.9466C18.5354 17.065 18.5147 17.1822 18.471 17.2914C18.4274 17.4006 18.3617 17.4995 18.278 17.5822C18.1942 17.665 18.0941 17.7298 17.9836 17.773C17.8731 17.8161 17.7544 17.8366 17.6346 17.8333L17.0032 17.8262C16.8834 17.8268 16.7642 17.8037 16.6527 17.758C16.5412 17.7124 16.4395 17.6453 16.3539 17.5607C16.2682 17.476 16.2003 17.3756 16.1541 17.2654C16.1079 17.1552 16.0845 17.0375 16.0851 16.9192L16.0605 14.7745C16.0544 14.5377 15.955 14.3104 15.7836 14.1411C15.6122 13.9717 15.3822 13.8735 15.1424 13.8675L12.5968 13.8389C12.3571 13.8396 12.1293 13.9326 11.9617 14.0982C11.7942 14.2638 11.7 14.4889 11.6993 14.7256L11.7248 16.9483C11.7282 17.0666 11.7074 17.1839 11.6638 17.2931C11.6201 17.4023 11.5545 17.5012 11.4707 17.5839C11.387 17.6666 11.2869 17.7315 11.1764 17.7746C11.0659 17.8177 10.9472 17.8383 10.8274 17.835L9.6631 17.8219C9.42338 17.8159 9.19337 17.7177 9.02195 17.5483C8.85052 17.379 8.75118 17.1517 8.74505 16.9149L8.71953 14.6922C8.72016 14.5739 8.69668 14.4562 8.65051 14.346C8.60434 14.2358 8.5364 14.1354 8.45074 14.0507C8.36509 13.9661 8.26348 13.899 8.15193 13.8534C8.04039 13.8078 7.92121 13.7846 7.80148 13.7852L5.19572 13.678C4.95379 13.6797 4.72408 13.774 4.55488 13.9412C4.38569 14.1083 4.29021 14.3353 4.28852 14.5743L4.41226 16.7591C4.41506 16.8785 4.39366 16.9968 4.34932 17.1069C4.30498 17.2171 4.23859 17.3168 4.15407 17.4003C4.06955 17.4838 3.9686 17.5494 3.85714 17.5932C3.74568 17.637 3.62598 17.6582 3.50506 17.6554L3.21879 17.6425C2.97686 17.6441 2.74715 17.7385 2.57796 17.9056C2.40877 18.0728 2.31328 18.2997 2.31159 18.5388L2.76157 56.8601C2.76224 56.978 2.7868 57.095 2.83381 57.2044C2.88082 57.3137 2.94931 57.4131 3.03525 57.4968L3.83355 58.2855C4.0063 58.4545 4.23755 58.5515 4.47793 58.5559L8.91802 58.6057C9.15775 58.6117 9.38775 58.7099 9.55918 58.8792C9.7306 59.0486 9.82994 59.2758 9.83607 59.5127L9.8616 61.7353C9.8609 61.9721 9.76676 62.1972 9.59918 62.3628C9.4316 62.5283 9.20378 62.6214 8.96413 62.622L5.27392 62.5807C5.03358 62.5797 4.80452 62.6715 4.63561 62.8367L3.27968 64.1763C3.11252 64.3432 3.01952 64.5696 3.02054 64.807L3.14369 75.5303C3.14812 75.7678 3.24634 75.9963 3.41737 76.167L6.41102 79.1247C6.50612 79.2214 6.62166 79.296 6.74896 79.3429C6.79773 79.4681 6.87307 79.582 6.96984 79.6768L9.96349 82.6345C10.1378 82.8011 10.368 82.8977 10.6079 82.9049L21.4614 83.0266C21.7018 83.0276 21.9308 82.9357 22.0998 82.7706L23.4557 81.4309C23.6228 81.264 23.7158 81.0377 23.7148 80.8003L23.6729 77.1543C23.6696 77.036 23.6904 76.9187 23.734 76.8095C23.7777 76.7003 23.8433 76.6014 23.927 76.5187C24.0108 76.436 24.1109 76.3711 24.2214 76.328C24.3319 76.2849 24.4506 76.2643 24.5704 76.2676L26.8101 76.283C27.0521 76.2901 27.284 76.3896 27.4571 76.5606C27.6302 76.7316 27.7309 76.9608 27.7381 77.1999L27.7785 81.5768C27.7829 81.8143 27.8812 82.0428 28.0522 82.2135L28.8605 83.0121C29.0332 83.1811 29.2645 83.2781 29.5048 83.2825L68.3315 83.7665C68.5735 83.7648 68.8032 83.6705 68.9724 83.5033C69.1416 83.3361 69.2371 83.1092 69.2387 82.8702L69.1274 82.6252C69.1291 82.3862 69.2246 82.1592 69.3938 81.9921C69.563 81.8249 69.7927 81.7306 70.0346 81.7289L72.3532 81.7451Z" stroke="#CA5935" stroke-width="2" stroke-miterlimit="10"/><path d="M90.0657 20.1598H103" stroke="#757F85" stroke-width="1.293"/><path d="M90.0657 93.0361H103" stroke="#757F85" stroke-width="1.293"/><path d="M99.6264 12.6208L99.6264 100.575" stroke="#757F85" stroke-width="1.293"/><path d="M107.932 55.9757L107.232 54.7997L110.228 52.9237H111.628V62.5977H110.004V54.7297L107.932 55.9757ZM118.219 57.9077C118.48 57.9077 118.723 57.8704 118.947 57.7957C119.171 57.7211 119.367 57.6044 119.535 57.4457C119.703 57.2777 119.834 57.0724 119.927 56.8297C120.02 56.5777 120.067 56.2837 120.067 55.9477C120.058 55.6771 120.011 55.4204 119.927 55.1777C119.852 54.935 119.74 54.725 119.591 54.5477C119.451 54.3611 119.274 54.2164 119.059 54.1137C118.844 54.0111 118.597 53.9597 118.317 53.9597C117.766 53.9597 117.318 54.1324 116.973 54.4777C116.637 54.8137 116.469 55.3037 116.469 55.9477C116.469 56.2184 116.497 56.4751 116.553 56.7177C116.618 56.9511 116.716 57.1564 116.847 57.3337C116.987 57.5111 117.169 57.6511 117.393 57.7537C117.617 57.8564 117.892 57.9077 118.219 57.9077ZM116.623 60.3157C116.707 60.7357 116.861 61.0437 117.085 61.2397C117.318 61.4264 117.696 61.5197 118.219 61.5197C118.91 61.5197 119.409 61.2491 119.717 60.7077C120.025 60.1664 120.184 59.2984 120.193 58.1037C119.614 58.8317 118.835 59.1957 117.855 59.1957C116.856 59.1957 116.11 58.9064 115.615 58.3277C115.13 57.7397 114.887 56.9557 114.887 55.9757C114.887 55.4904 114.966 55.0471 115.125 54.6457C115.284 54.2351 115.512 53.8851 115.811 53.5957C116.11 53.2971 116.469 53.0684 116.889 52.9097C117.309 52.7417 117.785 52.6577 118.317 52.6577C119.017 52.6577 119.586 52.8024 120.025 53.0917C120.473 53.3811 120.823 53.7497 121.075 54.1977C121.336 54.6457 121.514 55.1404 121.607 55.6817C121.71 56.2231 121.761 56.7457 121.761 57.2497C121.761 58.2671 121.686 59.1304 121.537 59.8397C121.388 60.5491 121.164 61.1277 120.865 61.5757C120.576 62.0237 120.212 62.3504 119.773 62.5557C119.344 62.7517 118.84 62.8497 118.261 62.8497C117.272 62.8497 116.516 62.6491 115.993 62.2477C115.47 61.8371 115.172 61.1931 115.097 60.3157H116.623ZM125.02 55.3177V56.3677C125.524 55.6677 126.122 55.2617 126.812 55.1497C126.99 55.1217 127.176 55.1077 127.372 55.1077C127.867 55.1264 128.268 55.2524 128.576 55.4857C128.884 55.7097 129.108 56.0177 129.248 56.4097C129.892 55.5324 130.686 55.0937 131.628 55.0937C132.403 55.0937 132.972 55.3084 133.336 55.7377C133.7 56.1671 133.882 56.8531 133.882 57.7957V62.5977H132.286V58.2297C132.286 57.8751 132.263 57.5811 132.216 57.3477C132.17 57.1144 132.1 56.9324 132.006 56.8017C131.922 56.6617 131.81 56.5684 131.67 56.5217C131.53 56.4657 131.372 56.4377 131.194 56.4377C130.914 56.4377 130.667 56.4891 130.452 56.5917C130.238 56.6944 130.056 56.8297 129.906 56.9977C129.766 57.1657 129.659 57.3571 129.584 57.5717C129.51 57.7771 129.472 57.9917 129.472 58.2157V62.5977H127.876V58.0757C127.876 57.4504 127.778 57.0211 127.582 56.7877C127.396 56.5544 127.134 56.4377 126.798 56.4377C126.658 56.4377 126.49 56.4704 126.294 56.5357C126.098 56.5917 125.907 56.6897 125.72 56.8297C125.543 56.9697 125.389 57.1564 125.258 57.3897C125.128 57.6231 125.062 57.9077 125.062 58.2437V62.5977H123.48V55.3177H125.02ZM137.175 55.3177V56.3677C137.679 55.6677 138.276 55.2617 138.967 55.1497C139.144 55.1217 139.331 55.1077 139.527 55.1077C140.021 55.1264 140.423 55.2524 140.731 55.4857C141.039 55.7097 141.263 56.0177 141.403 56.4097C142.047 55.5324 142.84 55.0937 143.783 55.0937C144.557 55.0937 145.127 55.3084 145.491 55.7377C145.855 56.1671 146.037 56.8531 146.037 57.7957V62.5977H144.441V58.2297C144.441 57.8751 144.417 57.5811 144.371 57.3477C144.324 57.1144 144.254 56.9324 144.161 56.8017C144.077 56.6617 143.965 56.5684 143.825 56.5217C143.685 56.4657 143.526 56.4377 143.349 56.4377C143.069 56.4377 142.821 56.4891 142.607 56.5917C142.392 56.6944 142.21 56.8297 142.061 56.9977C141.921 57.1657 141.813 57.3571 141.739 57.5717C141.664 57.7771 141.627 57.9917 141.627 58.2157V62.5977H140.031V58.0757C140.031 57.4504 139.933 57.0211 139.737 56.7877C139.55 56.5544 139.289 56.4377 138.953 56.4377C138.813 56.4377 138.645 56.4704 138.449 56.5357C138.253 56.5917 138.061 56.6897 137.875 56.8297C137.697 56.9697 137.543 57.1564 137.413 57.3897C137.282 57.6231 137.217 57.9077 137.217 58.2437V62.5977H135.635V55.3177H137.175Z" fill="#757F85"/></g><defs><clipPath id="clip0_2_11"><path fill="#fff" d="M0 0H147V113.195H0z"/></clipPath></defs></svg>