<svg width="352" height="42" viewBox="0 0 352 42" fill="none" xmlns="http://www.w3.org/2000/svg"><rect width="351.817" height="10.348" rx="5.174" fill="url(#paint0_linear_3_20)"/><path d="M160.057 34.2283C160.099 34.5163 160.163 34.7723 160.249 34.9963C160.345 35.2097 160.467 35.391 160.617 35.5403C160.777 35.679 160.974 35.7857 161.209 35.8603C161.454 35.9243 161.747 35.9563 162.089 35.9563C162.697 35.9563 163.171 35.7803 163.513 35.4283C163.865 35.0657 164.041 34.4843 164.041 33.6843C164.041 32.991 163.875 32.463 163.545 32.1003C163.225 31.7377 162.729 31.5563 162.057 31.5563C161.609 31.5563 161.225 31.631 160.905 31.7803C160.585 31.919 160.297 32.127 160.041 32.4043H158.489L159.017 26.1963H165.209V27.7963H160.521L160.265 30.6923C160.563 30.4897 160.894 30.335 161.257 30.2283C161.63 30.1217 162.014 30.0683 162.409 30.0683C163.038 30.0683 163.571 30.175 164.009 30.3883C164.446 30.591 164.798 30.863 165.065 31.2043C165.342 31.535 165.539 31.919 165.657 32.3563C165.785 32.783 165.849 33.215 165.849 33.6523C165.849 34.3243 165.753 34.9057 165.561 35.3963C165.379 35.8763 165.123 36.2763 164.793 36.5963C164.462 36.9163 164.067 37.151 163.609 37.3003C163.161 37.4603 162.675 37.5403 162.153 37.5403C160.937 37.5403 160.003 37.2737 159.353 36.7403C158.702 36.1963 158.334 35.359 158.249 34.2283H160.057ZM168.981 29.6843L168.181 28.3403L171.605 26.1963H173.205V37.2523H171.349V28.2603L168.981 29.6843ZM180.962 35.9403C181.378 35.9403 181.725 35.8443 182.002 35.6523C182.29 35.4497 182.52 35.167 182.69 34.8043C182.872 34.4417 183 33.999 183.074 33.4763C183.16 32.9537 183.202 32.367 183.202 31.7163C183.202 31.0763 183.16 30.495 183.074 29.9723C183 29.4497 182.872 29.007 182.69 28.6443C182.52 28.271 182.29 27.9883 182.002 27.7963C181.725 27.5937 181.378 27.4923 180.962 27.4923C180.546 27.4923 180.194 27.5937 179.906 27.7963C179.629 27.999 179.405 28.287 179.234 28.6603C179.064 29.023 178.941 29.4657 178.866 29.9883C178.792 30.5003 178.754 31.0763 178.754 31.7163C178.754 33.0817 178.92 34.127 179.25 34.8523C179.592 35.5777 180.162 35.9403 180.962 35.9403ZM180.946 37.5403C180.306 37.5403 179.73 37.4283 179.218 37.2043C178.717 36.9803 178.29 36.6337 177.938 36.1643C177.586 35.6843 177.314 35.0763 177.122 34.3403C176.941 33.6043 176.85 32.7297 176.85 31.7163C176.85 29.7643 177.208 28.3083 177.922 27.3483C178.648 26.3777 179.677 25.8923 181.01 25.8923C182.301 25.8923 183.304 26.367 184.018 27.3163C184.744 28.255 185.106 29.7217 185.106 31.7163C185.106 32.7297 185.01 33.6043 184.818 34.3403C184.637 35.0657 184.365 35.6683 184.002 36.1483C183.65 36.6177 183.213 36.9697 182.69 37.2043C182.178 37.4283 181.597 37.5403 180.946 37.5403ZM190.431 35.9403C190.847 35.9403 191.194 35.8443 191.471 35.6523C191.759 35.4497 191.988 35.167 192.159 34.8043C192.34 34.4417 192.468 33.999 192.543 33.4763C192.628 32.9537 192.671 32.367 192.671 31.7163C192.671 31.0763 192.628 30.495 192.543 29.9723C192.468 29.4497 192.34 29.007 192.159 28.6443C191.988 28.271 191.759 27.9883 191.471 27.7963C191.194 27.5937 190.847 27.4923 190.431 27.4923C190.015 27.4923 189.663 27.5937 189.375 27.7963C189.098 27.999 188.874 28.287 188.703 28.6603C188.532 29.023 188.41 29.4657 188.335 29.9883C188.26 30.5003 188.223 31.0763 188.223 31.7163C188.223 33.0817 188.388 34.127 188.719 34.8523C189.06 35.5777 189.631 35.9403 190.431 35.9403ZM190.415 37.5403C189.775 37.5403 189.199 37.4283 188.687 37.2043C188.186 36.9803 187.759 36.6337 187.407 36.1643C187.055 35.6843 186.783 35.0763 186.591 34.3403C186.41 33.6043 186.319 32.7297 186.319 31.7163C186.319 29.7643 186.676 28.3083 187.391 27.3483C188.116 26.3777 189.146 25.8923 190.479 25.8923C191.77 25.8923 192.772 26.367 193.487 27.3163C194.212 28.255 194.575 29.7217 194.575 31.7163C194.575 32.7297 194.479 33.6043 194.287 34.3403C194.106 35.0657 193.834 35.6683 193.471 36.1483C193.119 36.6177 192.682 36.9697 192.159 37.2043C191.647 37.4283 191.066 37.5403 190.415 37.5403Z" fill="#757F85"/><path d="M175.909 15.5214L179.269 21.3419H172.548L175.909 15.5214Z" fill="#fff"/><defs><linearGradient id="paint0_linear_3_20" x1="0" y1="10.348" x2="358.253" y2="10.348" gradientUnits="userSpaceOnUse"><stop stop-color="#FF792E"/><stop offset=".199" stop-color="#E6D26B"/><stop offset=".464" stop-color="#fff"/><stop offset=".724" stop-color="#A2C4CB"/><stop offset="1" stop-color="#3C9BE0"/></linearGradient></defs></svg>